<mxfile host="app.diagrams.net" modified="2020-08-11T15:37:41.782Z" agent="5.0 (Macintosh; Intel Mac OS X 10_14_6) AppleWebKit/537.36 (KHTML, like Gecko) Chrome/84.0.4147.105 Safari/537.36" etag="WRaeWsCw3qDiWMb6Bjbj" version="13.6.2" type="github">
  <diagram name="Page-1" id="0783ab3e-0a74-02c8-0abd-f7b4e66b4bec">
    <mxGraphModel dx="946" dy="539" grid="1" gridSize="10" guides="1" tooltips="1" connect="1" arrows="1" fold="1" page="1" pageScale="1" pageWidth="850" pageHeight="1100" background="#ffffff" math="0" shadow="0">
      <root>
        <mxCell id="0" />
        <mxCell id="1" parent="0" />
        <mxCell id="1c1d494c118603dd-1" value="控制中心(CC)" style="swimlane;html=1;childLayout=stackLayout;startSize=20;rounded=0;shadow=0;comic=0;labelBackgroundColor=none;strokeWidth=1;fontFamily=Verdana;fontSize=12;align=center;" parent="1" vertex="1">
          <mxGeometry x="40" y="20" width="750" height="990" as="geometry" />
        </mxCell>
        <mxCell id="1c1d494c118603dd-2" value="model parser" style="swimlane;html=1;startSize=20;" parent="1c1d494c118603dd-1" vertex="1">
          <mxGeometry y="20" width="250" height="970" as="geometry" />
        </mxCell>
        <mxCell id="KZEL9wzrh1ICA_aKpmvt-15" value="" style="endArrow=classic;html=1;entryX=0.5;entryY=0;entryDx=0;entryDy=0;" edge="1" parent="1c1d494c118603dd-2" target="KZEL9wzrh1ICA_aKpmvt-13">
          <mxGeometry width="50" height="50" relative="1" as="geometry">
            <mxPoint x="65" y="130" as="sourcePoint" />
            <mxPoint x="115" y="80" as="targetPoint" />
          </mxGeometry>
        </mxCell>
        <mxCell id="KZEL9wzrh1ICA_aKpmvt-20" value="consumer" style="rounded=0;whiteSpace=wrap;html=1;" vertex="1" parent="1c1d494c118603dd-2">
          <mxGeometry x="15" y="300" width="55" height="30" as="geometry" />
        </mxCell>
        <mxCell id="KZEL9wzrh1ICA_aKpmvt-21" value="" style="endArrow=classic;html=1;entryX=0.25;entryY=1;entryDx=0;entryDy=0;" edge="1" parent="1c1d494c118603dd-2" target="KZEL9wzrh1ICA_aKpmvt-17">
          <mxGeometry width="50" height="50" relative="1" as="geometry">
            <mxPoint x="65" y="300" as="sourcePoint" />
            <mxPoint x="115" y="250" as="targetPoint" />
          </mxGeometry>
        </mxCell>
        <mxCell id="KZEL9wzrh1ICA_aKpmvt-13" value="loader" style="rounded=1;whiteSpace=wrap;html=1;shadow=0;comic=0;labelBackgroundColor=none;strokeWidth=1;fontFamily=Verdana;fontSize=12;align=center;arcSize=50;" vertex="1" parent="1c1d494c118603dd-2">
          <mxGeometry x="65" y="169" width="100" height="30" as="geometry" />
        </mxCell>
        <mxCell id="KZEL9wzrh1ICA_aKpmvt-7" value="组件" style="rounded=1;whiteSpace=wrap;html=1;" vertex="1" parent="1c1d494c118603dd-2">
          <mxGeometry x="60" y="30" width="110" height="30" as="geometry" />
        </mxCell>
        <mxCell id="KZEL9wzrh1ICA_aKpmvt-8" value="resources" style="html=1;" vertex="1" parent="1c1d494c118603dd-2">
          <mxGeometry x="30" y="100" width="70" height="30" as="geometry" />
        </mxCell>
        <mxCell id="KZEL9wzrh1ICA_aKpmvt-11" value="" style="endArrow=open;endFill=1;endSize=12;html=1;entryX=0.5;entryY=0;entryDx=0;entryDy=0;exitX=0.5;exitY=1;exitDx=0;exitDy=0;" edge="1" parent="1c1d494c118603dd-2" source="KZEL9wzrh1ICA_aKpmvt-7" target="KZEL9wzrh1ICA_aKpmvt-8">
          <mxGeometry width="160" relative="1" as="geometry">
            <mxPoint x="100" y="60" as="sourcePoint" />
            <mxPoint x="260" y="60" as="targetPoint" />
          </mxGeometry>
        </mxCell>
        <mxCell id="KZEL9wzrh1ICA_aKpmvt-17" value="实例化组件" style="shape=process;whiteSpace=wrap;html=1;backgroundOutline=1;" vertex="1" parent="1c1d494c118603dd-2">
          <mxGeometry x="60" y="230" width="120" height="40" as="geometry" />
        </mxCell>
        <mxCell id="KZEL9wzrh1ICA_aKpmvt-19" value="" style="endArrow=classic;html=1;entryX=0.5;entryY=0;entryDx=0;entryDy=0;" edge="1" parent="1c1d494c118603dd-2" target="KZEL9wzrh1ICA_aKpmvt-17">
          <mxGeometry width="50" height="50" relative="1" as="geometry">
            <mxPoint x="120" y="199" as="sourcePoint" />
            <mxPoint x="170" y="149" as="targetPoint" />
          </mxGeometry>
        </mxCell>
        <mxCell id="KZEL9wzrh1ICA_aKpmvt-23" value="store" style="rounded=0;whiteSpace=wrap;html=1;" vertex="1" parent="1c1d494c118603dd-2">
          <mxGeometry x="87.5" y="300" width="55" height="30" as="geometry" />
        </mxCell>
        <mxCell id="KZEL9wzrh1ICA_aKpmvt-25" value="" style="endArrow=classic;html=1;entryX=0.5;entryY=1;entryDx=0;entryDy=0;" edge="1" parent="1c1d494c118603dd-2" target="KZEL9wzrh1ICA_aKpmvt-17">
          <mxGeometry width="50" height="50" relative="1" as="geometry">
            <mxPoint x="115" y="300" as="sourcePoint" />
            <mxPoint x="165" y="250" as="targetPoint" />
          </mxGeometry>
        </mxCell>
        <mxCell id="KZEL9wzrh1ICA_aKpmvt-9" value="模型" style="html=1;" vertex="1" parent="1c1d494c118603dd-2">
          <mxGeometry x="120" y="100" width="80" height="30" as="geometry" />
        </mxCell>
        <mxCell id="KZEL9wzrh1ICA_aKpmvt-12" value="" style="endArrow=open;endFill=1;endSize=12;html=1;entryX=0.5;entryY=0;entryDx=0;entryDy=0;" edge="1" parent="1c1d494c118603dd-2" target="KZEL9wzrh1ICA_aKpmvt-9">
          <mxGeometry width="160" relative="1" as="geometry">
            <mxPoint x="120" y="60" as="sourcePoint" />
            <mxPoint x="280" y="60" as="targetPoint" />
          </mxGeometry>
        </mxCell>
        <mxCell id="KZEL9wzrh1ICA_aKpmvt-16" value="" style="endArrow=classic;html=1;entryX=0.5;entryY=0;entryDx=0;entryDy=0;" edge="1" parent="1c1d494c118603dd-2" target="KZEL9wzrh1ICA_aKpmvt-13">
          <mxGeometry width="50" height="50" relative="1" as="geometry">
            <mxPoint x="160" y="130" as="sourcePoint" />
            <mxPoint x="210" y="80" as="targetPoint" />
          </mxGeometry>
        </mxCell>
        <mxCell id="KZEL9wzrh1ICA_aKpmvt-24" value="net" style="rounded=0;whiteSpace=wrap;html=1;" vertex="1" parent="1c1d494c118603dd-2">
          <mxGeometry x="160" y="300" width="55" height="30" as="geometry" />
        </mxCell>
        <mxCell id="KZEL9wzrh1ICA_aKpmvt-26" value="" style="endArrow=classic;html=1;entryX=0.75;entryY=1;entryDx=0;entryDy=0;" edge="1" parent="1c1d494c118603dd-2" target="KZEL9wzrh1ICA_aKpmvt-17">
          <mxGeometry width="50" height="50" relative="1" as="geometry">
            <mxPoint x="190" y="300" as="sourcePoint" />
            <mxPoint x="240" y="250" as="targetPoint" />
          </mxGeometry>
        </mxCell>
        <mxCell id="KZEL9wzrh1ICA_aKpmvt-28" value="" style="endArrow=open;endFill=1;endSize=12;html=1;" edge="1" parent="1c1d494c118603dd-2">
          <mxGeometry width="160" relative="1" as="geometry">
            <mxPoint x="180" y="249.5" as="sourcePoint" />
            <mxPoint x="320" y="40" as="targetPoint" />
            <Array as="points">
              <mxPoint x="210" y="250" />
              <mxPoint x="210" y="40" />
            </Array>
          </mxGeometry>
        </mxCell>
        <mxCell id="KZEL9wzrh1ICA_aKpmvt-33" value="" style="endArrow=classic;html=1;entryX=0;entryY=0.75;entryDx=0;entryDy=0;" edge="1" parent="1c1d494c118603dd-2" target="KZEL9wzrh1ICA_aKpmvt-29">
          <mxGeometry width="50" height="50" relative="1" as="geometry">
            <mxPoint x="180" y="250" as="sourcePoint" />
            <mxPoint x="230" y="200" as="targetPoint" />
            <Array as="points">
              <mxPoint x="260" y="250" />
              <mxPoint x="260" y="111" />
            </Array>
          </mxGeometry>
        </mxCell>
        <mxCell id="KZEL9wzrh1ICA_aKpmvt-35" value="" style="endArrow=classic;html=1;entryX=0;entryY=0.5;entryDx=0;entryDy=0;" edge="1" parent="1c1d494c118603dd-2" target="KZEL9wzrh1ICA_aKpmvt-30">
          <mxGeometry width="50" height="50" relative="1" as="geometry">
            <mxPoint x="180" y="249" as="sourcePoint" />
            <mxPoint x="230" y="199" as="targetPoint" />
            <Array as="points">
              <mxPoint x="290" y="249" />
              <mxPoint x="290" y="172" />
            </Array>
          </mxGeometry>
        </mxCell>
        <mxCell id="1c1d494c118603dd-3" value="scene builder" style="swimlane;html=1;startSize=20;" parent="1c1d494c118603dd-1" vertex="1">
          <mxGeometry x="250" y="20" width="250" height="970" as="geometry" />
        </mxCell>
        <mxCell id="KZEL9wzrh1ICA_aKpmvt-27" value="Level controler" style="rounded=1;whiteSpace=wrap;html=1;" vertex="1" parent="1c1d494c118603dd-3">
          <mxGeometry x="75" y="30" width="115" height="30" as="geometry" />
        </mxCell>
        <mxCell id="KZEL9wzrh1ICA_aKpmvt-29" value="scale manager" style="rounded=1;whiteSpace=wrap;html=1;" vertex="1" parent="1c1d494c118603dd-3">
          <mxGeometry x="70" y="85" width="120" height="35" as="geometry" />
        </mxCell>
        <mxCell id="KZEL9wzrh1ICA_aKpmvt-40" style="edgeStyle=orthogonalEdgeStyle;rounded=0;orthogonalLoop=1;jettySize=auto;html=1;exitX=0.5;exitY=1;exitDx=0;exitDy=0;" edge="1" parent="1c1d494c118603dd-3" source="KZEL9wzrh1ICA_aKpmvt-30" target="KZEL9wzrh1ICA_aKpmvt-36">
          <mxGeometry relative="1" as="geometry" />
        </mxCell>
        <mxCell id="KZEL9wzrh1ICA_aKpmvt-30" value="&lt;span style=&quot;color: rgb(0 , 0 , 0) ; font-family: &amp;#34;microsoft yahei&amp;#34; , &amp;#34;arial&amp;#34; , &amp;#34;helvetica&amp;#34; , sans-serif ; font-size: 14px ; font-style: normal ; font-weight: 400 ; letter-spacing: normal ; text-align: left ; text-indent: 0px ; text-transform: none ; word-spacing: 0px ; background-color: rgb(255 , 255 , 255) ; display: inline ; float: none&quot;&gt;pos calculator&lt;/span&gt;" style="rounded=1;whiteSpace=wrap;html=1;" vertex="1" parent="1c1d494c118603dd-3">
          <mxGeometry x="70" y="154" width="120" height="36" as="geometry" />
        </mxCell>
        <mxCell id="KZEL9wzrh1ICA_aKpmvt-36" value="构建scene" style="shape=process;whiteSpace=wrap;html=1;backgroundOutline=1;" vertex="1" parent="1c1d494c118603dd-3">
          <mxGeometry x="70" y="260" width="120" height="60" as="geometry" />
        </mxCell>
        <mxCell id="KZEL9wzrh1ICA_aKpmvt-37" value="" style="endArrow=classic;html=1;entryX=1;entryY=0.5;entryDx=0;entryDy=0;" edge="1" parent="1c1d494c118603dd-3" target="KZEL9wzrh1ICA_aKpmvt-36">
          <mxGeometry width="50" height="50" relative="1" as="geometry">
            <mxPoint x="190" y="50" as="sourcePoint" />
            <mxPoint x="240" as="targetPoint" />
            <Array as="points">
              <mxPoint x="230" y="50" />
              <mxPoint x="230" y="170" />
              <mxPoint x="230" y="280" />
            </Array>
          </mxGeometry>
        </mxCell>
        <mxCell id="KZEL9wzrh1ICA_aKpmvt-38" value="" style="endArrow=classic;html=1;entryX=1;entryY=0.25;entryDx=0;entryDy=0;" edge="1" parent="1c1d494c118603dd-3" target="KZEL9wzrh1ICA_aKpmvt-36">
          <mxGeometry width="50" height="50" relative="1" as="geometry">
            <mxPoint x="190" y="100" as="sourcePoint" />
            <mxPoint x="240" y="50" as="targetPoint" />
            <Array as="points">
              <mxPoint x="210" y="100" />
              <mxPoint x="210" y="180" />
              <mxPoint x="210" y="270" />
            </Array>
          </mxGeometry>
        </mxCell>
        <mxCell id="KZEL9wzrh1ICA_aKpmvt-43" value="" style="endArrow=classic;html=1;entryX=0;entryY=0.5;entryDx=0;entryDy=0;" edge="1" parent="1c1d494c118603dd-3" target="KZEL9wzrh1ICA_aKpmvt-41">
          <mxGeometry width="50" height="50" relative="1" as="geometry">
            <mxPoint x="130" y="320" as="sourcePoint" />
            <mxPoint x="180" y="270" as="targetPoint" />
            <Array as="points">
              <mxPoint x="130" y="370" />
              <mxPoint x="270" y="370" />
              <mxPoint x="270" y="90" />
              <mxPoint x="270" y="70" />
            </Array>
          </mxGeometry>
        </mxCell>
        <mxCell id="1c1d494c118603dd-4" value="scheduler" style="swimlane;html=1;startSize=20;" parent="1c1d494c118603dd-1" vertex="1">
          <mxGeometry x="500" y="20" width="250" height="970" as="geometry" />
        </mxCell>
        <mxCell id="KZEL9wzrh1ICA_aKpmvt-44" style="edgeStyle=orthogonalEdgeStyle;rounded=0;orthogonalLoop=1;jettySize=auto;html=1;exitX=0.5;exitY=1;exitDx=0;exitDy=0;entryX=0.5;entryY=0;entryDx=0;entryDy=0;" edge="1" parent="1c1d494c118603dd-4" source="KZEL9wzrh1ICA_aKpmvt-41" target="KZEL9wzrh1ICA_aKpmvt-42">
          <mxGeometry relative="1" as="geometry" />
        </mxCell>
        <mxCell id="KZEL9wzrh1ICA_aKpmvt-41" value="scene manager" style="rounded=1;whiteSpace=wrap;html=1;" vertex="1" parent="1c1d494c118603dd-4">
          <mxGeometry x="70" y="40" width="120" height="60" as="geometry" />
        </mxCell>
        <mxCell id="KZEL9wzrh1ICA_aKpmvt-42" value="game Manager" style="rounded=1;whiteSpace=wrap;html=1;" vertex="1" parent="1c1d494c118603dd-4">
          <mxGeometry x="70" y="139" width="120" height="60" as="geometry" />
        </mxCell>
      </root>
    </mxGraphModel>
  </diagram>
</mxfile>
